<?xml version="1.0" encoding="UTF-8"?>
<svg version="1.1" xmlns="http://www.w3.org/2000/svg" width="1024" height="1024">
<path d="M0 0 C73.45093359 -0.03046771 146.90186876 -0.05067912 220.3528077 -0.06185675 C223.15401258 -0.06228314 225.95521746 -0.06271717 228.75642234 -0.06315851 C297.49325777 -0.07397711 366.23010524 -0.0782949 666.52469271 0.49097854 C668.9485927 0.50004148 671.3724928 0.50907348 673.79639292 0.51810217 C712.53099958 0.66257862 751.26553793 0.820587 790 1 C787.54962324 34.63226662 784.60601108 68.2225134 781.68476754 101.81631189 C780.93809203 110.40391901 780.19369885 118.99172363 779.44934692 127.57953241 C778.07538113 143.43067102 776.69967081 159.28165775 775.32292366 175.13255501 C773.95968262 190.82801892 772.59724323 206.52355209 771.23583794 222.21917534 C771.10808776 223.69199738 771.10808776 223.69199738 770.97775678 225.19457341 C770.54503301 230.18345931 770.11232308 235.1723464 769.67961841 240.16123395 C766.62265182 275.40636826 763.56392518 310.65134962 760.50415039 345.89624023 C757.54392668 379.99446827 754.58452213 414.09276724 751.6262207 448.19116211 C751.53511607 449.24126165 751.44401143 450.2913612 751.35014605 451.37328194 C750.52574425 460.8755949 749.70135303 470.37790878 748.87697441 479.88022375 C746.91113511 502.5397423 744.94516698 525.19924967 742.97911072 547.85874939 C742.89263911 548.85536602 742.80616751 549.85198265 742.71707555 550.87879978 C739.06806363 592.93487386 735.41816571 634.99087103 731.76759377 677.04680973 C731.32735356 682.11854169 730.88712206 687.19027441 730.44690104 692.26200804 C730.23551807 694.69731614 730.02413111 697.1326239 729.81274355 699.5679316 C729.53917062 702.71965624 729.26561463 705.87138235 728.99206977 709.02310943 C728.3504502 716.41542504 727.70854639 723.80771576 727.065961 731.19994748 C726.82628174 733.9575612 726.58663141 736.71517743 726.34700203 739.47279549 C726.28927624 740.13704745 726.23155045 740.80129942 726.1720754 741.48568024 C725.4657829 749.61462122 724.76304025 757.74385668 724.06508299 765.87351759 C723.69056141 770.23510221 723.31474849 774.59657511 722.93882989 778.95803951 C722.69086363 781.84208922 722.44498143 784.72631131 722.19919115 787.61054713 C722.05233534 789.3147788 721.90537143 791.01900116 721.75827694 792.72321224 C721.66386715 793.84322761 721.66386715 793.84322761 721.56755009 794.98586955 C721.18767679 799.35430682 720.65751438 803.66695685 720 808 C719.32636917 808.19362122 718.65273834 808.38724243 717.95869446 808.58673096 C685.33825056 817.96355222 652.72289521 827.35755577 620.125 836.8125 C619.42043419 837.01685417 618.71586838 837.22120834 617.98995209 837.43175507 C612.19290674 839.1131711 606.39588668 840.79467432 600.59890747 842.47631836 C583.67351751 847.38613476 566.74547911 852.28679202 549.81709671 857.1862793 C546.65425797 858.10169177 543.49143537 859.01716002 540.32861233 859.93262672 C530.71481489 862.71529618 521.10095804 865.49776034 511.48709106 868.28018951 C499.52801001 871.74137036 487.56894816 875.20261755 475.60996342 878.66413116 C470.79409739 880.05807017 465.97820705 881.45192509 461.1622591 882.84558105 C459.64885293 883.28359236 458.13547517 883.72170188 456.62212658 884.15991211 C452.97336809 885.21640042 449.32423821 886.27156074 445.67417908 887.32354736 C439.23862666 889.18014537 432.8080201 891.04976649 426.39306545 892.97651768 C423.54146054 893.83243908 420.68763401 894.6808162 417.83367348 895.52884483 C416.49965303 895.92774263 415.16678563 896.33052134 413.83522606 896.73755836 C412.0015927 897.2979592 410.16357917 897.84396614 408.32543945 898.3894043 C407.29256302 898.70161423 406.25968658 899.01382416 405.19551086 899.335495 C398.67880305 900.69064137 393.31988494 900.09096076 386.97680664 898.28540039 C386.31682017 898.1006676 385.65683371 897.91593481 384.97684765 897.72560406 C382.78503858 897.10944964 380.59775771 896.47857177 378.41015625 895.84765625 C376.82869358 895.39996772 375.24695959 894.95323671 373.66497803 894.50738525 C370.25615403 893.54454846 366.849272 892.57521072 363.4437561 891.60073853 C357.97865334 890.03698882 352.50956539 888.48751679 347.03979492 886.94018555 C340.28724338 885.02900018 333.53567214 883.11442036 326.78527546 881.1956377 C314.28539182 877.64302446 301.77771423 874.11873919 289.265625 870.609375 C288.33688065 870.3488566 287.40813629 870.0883382 286.45124817 869.81992531 C282.70839227 868.7701013 278.96549496 867.72042517 275.22252655 866.67100239 C264.92328479 863.78330895 254.62558912 860.89011883 244.328125 857.99609375 C242.96135368 857.61199876 242.96135368 857.61199876 241.56697083 857.22014427 C229.20492911 853.74598777 216.84400256 850.26789139 204.484375 846.78515625 C203.75179977 846.57873945 203.01922455 846.37232265 202.26445007 846.1596508 C195.08789673 844.13746441 187.9115218 842.11464791 180.73561859 840.0901556 C164.63425186 835.54794139 148.52741562 831.02589099 132.41363716 826.52788925 C126.68620273 824.92876138 120.95931602 823.32767243 115.23237514 821.72677803 C109.67632332 820.17401772 104.11925333 818.6249689 98.56141472 817.0786171 C95.12610429 816.12192835 91.69173458 815.16189679 88.25760651 814.20097351 C86.65505351 813.75333233 85.05209836 813.30712806 83.44872284 812.86244202 C81.24966231 812.25236762 79.05205877 811.63729631 76.85473633 811.02099609 C75.62104813 810.67716888 74.38735992 810.33334167 73.11628723 809.97909546 C67.99097188 808.36879043 67.99097188 808.36879043 66 807 C65.33284505 804.60785142 65.33284505 804.60785142 65.09333074 801.54005778 C64.99322745 800.37824489 64.89312416 799.21643199 64.78998743 798.01941265 C64.65359927 796.09657752 64.65359927 796.09657752 64.5144558 794.13489723 C64.40448253 792.77681202 64.2927984 791.41886441 64.17953004 790.06105004 C63.87455579 786.34886001 63.59298876 782.6352076 63.3150336 778.92091049 C63.01387076 774.9536513 62.69063369 770.98819333 62.36931741 767.02252448 C61.83079979 760.34729084 61.30396084 753.67122937 60.7844882 746.99448824 C60.05329922 737.61118234 59.28545167 728.23117759 58.50362015 718.85197067 C58.37920613 717.35756236 58.25480799 715.86315272 58.13042562 714.36874177 C57.94296375 712.11653378 57.7554985 709.8643261 57.56793207 707.61212682 C56.85249991 699.01470687 56.14889847 690.41632235 55.44580078 681.81788635 C55.31282442 680.19215825 55.179847 678.56643023 55.04686852 676.9407023 C54.84374951 674.45725056 54.64065005 671.97379722 54.43759501 669.49034024 C53.71374191 660.63768383 52.98824572 651.78516219 52.2627646 642.93263908 C50.8440848 625.62088304 49.42689305 608.30900546 48.01040679 590.99706982 C46.77402305 575.88631926 45.53715192 560.7756087 44.29981613 545.66493607 C44.13243355 543.62079404 43.96505099 541.57665202 43.79766845 539.53250999 C43.54533852 536.4509667 43.29300802 533.36942345 43.04067608 530.28788032 C40.7057737 501.77333065 38.37138232 473.2587392 36.03812599 444.74405479 C35.90706271 443.14233291 35.90706271 443.14233291 35.77335169 441.50825301 C35.06420744 432.84177175 34.35507898 424.17528919 33.64595146 415.50880656 C30.86715861 381.54839416 28.08679244 347.5881109 25.30517578 313.62792969 C22.16817753 275.32891827 19.03224192 237.02982008 15.8979553 198.73058665 C15.56440261 194.65479869 15.2308468 190.57901098 14.89728928 186.50322342 C14.81517925 185.49989883 14.73306922 184.49657425 14.64847101 183.46284589 C13.40912252 168.31916205 12.16894857 153.17554596 10.9283638 138.03196335 C9.52188321 120.86328765 8.11654095 103.69451921 6.71273334 86.52562474 C5.92722013 76.91902452 5.14080387 67.31249922 4.35310553 57.70607792 C3.82792517 51.30011056 3.30391669 44.89404805 2.78088198 38.48790515 C2.48248193 34.83350374 2.18355808 31.17914719 1.88321681 27.52490477 C1.56048977 23.59814267 1.2402524 19.67117989 0.92028236 15.74419212 C0.82573672 14.59872429 0.73119108 13.45325646 0.63378042 12.27307749 C0.54931274 11.23132927 0.46484506 10.18958105 0.37781775 9.1162647 C0.30428949 8.21788002 0.23076123 7.31949534 0.15500484 6.39388689 C0.01725078 4.2664202 0 2.13192183 0 0 Z " fill="#0074BE" transform="translate(117,62)"/>
<path d="M0 0 C164.67 0 329.34 0 499 0 C499 31.68 499 63.36 499 96 C486.13 101.28 473.26 106.56 460 112 C449.44139524 116.38175784 449.44139524 116.38175784 438.89041138 120.78158569 C433.88768633 122.87267475 428.88316232 124.95945318 423.87890625 127.046875 C422.87631271 127.46519089 421.87371918 127.88350677 420.84074402 128.3144989 C410.92038684 132.45264961 400.99256352 136.57270489 391.0625 140.6875 C390.2294635 141.03271698 389.396427 141.37793396 388.53814697 141.73361206 C384.36293972 143.46377739 380.18760711 145.19363992 376.01220703 146.92333984 C368.36170492 150.09282023 360.71238849 153.26516033 353.06295776 156.43722534 C350.51734328 157.49280831 347.97169139 158.54830104 345.42602539 159.60375977 C337.5166649 162.88307214 329.60743229 166.16269203 321.6986084 169.44329834 C318.01713537 170.97036531 314.33559633 172.4972731 310.65405273 174.02416992 C308.92176088 174.74267824 307.18950033 175.46126203 305.45727539 176.17993164 C303.03409984 177.1852586 300.61080987 178.19030935 298.1875 179.1953125 C297.16928162 179.61787827 297.16928162 179.61787827 296.13049316 180.04898071 C288.09333816 183.3815026 280.04539658 186.68718964 272 190 C340.64 190.33 409.28 190.66 480 191 C478.90539785 215.08124738 478.90539785 215.08124738 477.54876709 226.13751221 C476.33270667 236.52680445 475.611427 246.97462249 474.7578125 257.3984375 C474.54623168 259.96100328 474.33446599 262.52355381 474.12252808 265.08609009 C473.67889118 270.45667801 473.23690667 275.8273978 472.79638672 281.19824219 C472.24572306 287.911757 471.69139596 294.62496232 471.13598347 301.33808613 C468.76483635 330.00994209 466.44502228 358.68467632 464.28775024 387.37350464 C463.48956505 397.94926952 462.63286365 408.51047845 461.5625 419.0625 C459.96454374 434.83846454 458.64272676 450.63716666 457.3125 466.4375 C457.25501209 467.11994404 457.19752419 467.80238808 457.13829422 468.50551224 C456.42253403 477.00342427 455.7097072 485.50158025 455 494 C452.00160016 495.12151425 449.00099932 496.2370247 446 497.3515625 C444.74123047 497.82251343 444.74123047 497.82251343 443.45703125 498.30297852 C438.34784612 500.19664451 433.241348 501.88511656 428 503.375 C427.24912109 503.58882324 426.49824219 503.80264648 425.72460938 504.02294922 C425.10392578 504.19842285 424.48324219 504.37389648 423.84375 504.5546875 C417.66947717 506.35242817 411.59212083 508.44445346 405.5 510.5 C397.56160191 513.17546175 389.62955311 515.76287969 381.5703125 518.046875 C374.81224697 519.99277714 368.16346047 522.25469363 361.5 524.5 C353.5106331 527.19065424 345.5257001 529.80274198 337.42089844 532.12158203 C323.15689835 536.22725408 309.06498999 540.95171639 295 545.6875 C287.27693145 548.28642019 279.517799 550.69280993 271.68359375 552.93359375 C267.85028774 554.04334194 264.05562835 555.24708414 260.2734375 556.51953125 C253.50474615 557.95002788 247.94384677 556.32282726 241.5625 554.25 C234.763692 552.12133151 227.99289592 550.19814384 221.06494141 548.53564453 C215.79645599 547.24761819 210.62198319 545.71523272 205.4375 544.125 C198.16759016 541.89676138 190.86696833 539.88213522 183.5 538 C175.29238758 535.9030945 167.17971052 533.59869475 159.08178711 531.11376953 C153.2839056 529.34785212 147.45922773 527.81601728 141.56884766 526.39355469 C137.64096506 525.43659767 133.78908401 524.35187533 129.9375 523.125 C123.86441652 521.20160448 117.72908548 519.59024403 111.5625 518 C104.31940692 516.1313916 97.10072031 514.2198656 89.91796875 512.12890625 C85.54816118 510.86009843 81.16237649 509.64903028 76.77856445 508.4296875 C67.14198416 505.74820429 57.53504388 503.0253036 48 500 C45.90909146 485.31154731 44.78766269 470.53250619 43.57599211 455.75164866 C43.27513796 452.08861792 42.97087137 448.42587025 42.66714478 444.76307678 C42.15885675 438.6268322 41.65330593 432.49036681 41.14941406 426.35375977 C40.56807167 419.27436931 39.9822323 412.1953616 39.39405382 405.11653608 C38.8254287 398.27168554 38.2600551 391.42657008 37.69612503 384.58133125 C37.45716739 381.68150528 37.21706755 378.78177731 36.97602463 375.88212395 C36.64003382 371.83827004 36.30879388 367.79404043 35.97802734 363.74975586 C35.87831131 362.55641129 35.77859528 361.36306671 35.67585754 360.13356018 C35.58619217 359.0279776 35.49652679 357.92239502 35.40414429 356.78330994 C35.32562414 355.82975585 35.247104 354.87620176 35.16620445 353.8937521 C34.97707149 350.60079643 35 347.29838268 35 344 C67.01 344 99.02 344 132 344 C133.155 354.51875 134.31 365.0375 135.5 375.875 C135.86544922 379.17741699 136.23089844 382.47983398 136.60742188 385.88232422 C136.89495699 388.52306566 137.1820929 391.16385061 137.46875 393.8046875 C137.54403931 394.47766876 137.61932861 395.15065002 137.69689941 395.84402466 C138.56046065 403.57789657 139.25371043 411.20818444 139 419 C140.05574219 419.23074219 141.11148438 419.46148438 142.19921875 419.69921875 C157.95396639 423.15999722 173.67553614 426.70128086 189.19140625 431.12475586 C195.80287526 432.9911549 202.4710116 434.563894 209.16162109 436.1184082 C215.73150426 437.65922969 222.22938183 439.38907657 228.70117188 441.30078125 C230.7923401 441.90574795 232.89137289 442.45914019 235 443 C236.2058374 443.33801636 236.2058374 443.33801636 237.43603516 443.68286133 C245.72612595 445.6584799 252.93282228 444.12150019 261.125 442.3125 C262.51850642 442.02068576 263.91247495 441.73106995 265.30688477 441.44360352 C268.01791842 440.88362225 270.72705102 440.31563551 273.43505859 439.74121094 C277.58929254 438.87747623 281.75179732 438.12855089 285.9375 437.4375 C293.79854113 436.08851644 301.58518166 434.42724897 309.38671875 432.77197266 C315.61529122 431.462011 321.80960559 430.29305079 328.12109375 429.45703125 C330.45020185 429.08728139 332.6930815 428.63111145 334.98852539 428.10424805 C340.32444917 426.90743844 345.68851924 425.88472499 351.0625 424.875 C352.50399414 424.60236328 352.50399414 424.60236328 353.97460938 424.32421875 C356.31616846 423.88153594 358.65796427 423.4401528 361 423 C361.9398456 413.52106476 362.87694407 404.04185941 363.8125 394.5625 C363.88178459 393.86078674 363.95106918 393.15907349 364.02245331 392.43609619 C366.21155547 370.35408493 366.21155547 370.35408493 368.24731445 348.25756836 C369.91529074 329.45482861 371.96820192 310.79413221 374 292 C260.48 292 146.96 292 30 292 C25.38393753 263.14960954 25.38393753 263.14960954 23.640625 250.515625 C23.44468745 249.10600031 23.24861864 247.69639386 23.0524292 246.2868042 C22.65089275 243.397332 22.25124304 240.50760743 21.85302734 237.61767578 C21.34392575 233.92459003 20.82920909 230.23230959 20.31311417 226.54019547 C19.91095162 223.65804792 19.5119497 220.77546956 19.11388397 217.8927536 C18.9251458 216.5291071 18.73537175 215.16560353 18.54450226 213.80225372 C18.28063634 211.9145209 18.02156087 210.02612034 17.76269531 208.13769531 C17.6148761 207.06948547 17.46705688 206.00127563 17.3147583 204.9006958 C17.02573432 202.23715796 16.93972638 199.67604081 17 197 C41.89869235 186.15407747 66.86782417 175.4723745 91.83355713 164.7819519 C100.25683348 161.17506283 108.67947949 157.56670617 117.1015625 153.95703125 C118.25132568 153.46424683 119.40108887 152.9714624 120.58569336 152.46374512 C124.05714162 150.97585973 127.52857402 149.48793735 131 148 C144.05385146 142.40480274 157.10778219 136.80979409 170.16363525 131.2192688 C175.12634017 129.09422564 180.0888006 126.96861174 185.05126953 124.84301758 C187.37083156 123.84962132 189.6904875 122.8564443 192.01025391 121.86352539 C209.69605074 114.29345847 227.34793526 106.64922805 245 99 C130.16 98.505 130.16 98.505 13 98 C8.43422131 70.60532787 8.43422131 70.60532787 7.4375 61.875 C7.19759212 59.87878852 6.95668307 57.88269715 6.71484375 55.88671875 C6.59737793 54.91009277 6.47991211 53.9334668 6.35888672 52.92724609 C5.77632701 48.17561964 5.14451429 43.431075 4.5 38.6875 C4.31751709 37.34014771 4.31751709 37.34014771 4.13134766 35.96557617 C3.52199741 31.54034105 2.8701359 27.12649081 2.14453125 22.71875 C2.0053125 21.87094971 1.86609375 21.02314941 1.72265625 20.1496582 C1.46019064 18.57408338 1.19126956 16.99956182 0.9140625 15.42651367 C0.01689218 10.0802709 0 5.58402809 0 0 Z " fill="#FEFEFE" transform="translate(260,234)"/>
<path d="M0 0 C34.11384604 -0.04217371 34.11384604 -0.04217371 47.31567383 -0.05078125 C48.53351765 -0.0515781 48.53351765 -0.0515781 49.77596438 -0.05239105 C55.85064268 -0.05626494 61.92532119 -0.05952623 68 -0.0625 C68.86095764 -0.0629343 69.72191527 -0.06336861 70.60896254 -0.06381607 C130.67838163 -0.09327345 190.74433762 0.11626962 250.8125 0.5 C251.74947975 0.50597372 252.6864595 0.51194743 253.65183258 0.51810217 C277.43461662 0.6699024 301.21733891 0.83002561 325 1 C323.90468491 16.72536134 322.76853401 32.44232074 321.37890625 48.14453125 C321.23185499 49.82385424 321.08496341 51.50319122 320.93821716 53.18254089 C320.63461264 56.65152268 320.32952554 60.12036937 320.02319336 63.58911133 C319.63979663 67.93119599 319.25964344 72.27355705 318.88049507 76.61601448 C317.3349422 94.30640642 315.73034301 111.98835655 313.99415588 129.66108704 C313.11111963 138.70153847 312.33460181 147.74427342 311.66333008 156.80270386 C310.75440067 169.03062351 309.72778779 181.23715818 308.5 193.4375 C307.23890764 205.9753525 306.24591103 218.52098836 305.3125 231.0866394 C304.4287252 242.93949212 303.36521557 254.75285084 302.125 266.57446289 C301.0654943 276.87084418 300.26522547 287.17822403 299.5 297.5 C298.66248664 308.7887364 297.7487543 320.05382486 296.5625 331.3125 C295.23053337 344.04839773 294.18618954 356.79689345 293.1875 369.5625 C291.59618879 389.86712226 289.89608851 410.16074452 288.13177872 430.45093918 C287.94136911 432.64295833 287.7516338 434.83503481 287.56210327 437.02713013 C286.25308626 452.15731105 284.89353053 467.28037924 283.41015625 482.39453125 C282.38383787 492.857337 281.44025479 503.3185465 280.66333008 513.80270386 C279.75440067 526.03062351 278.72778779 538.23715818 277.5 550.4375 C276.32335865 562.13573569 275.3712317 573.83829174 274.5 585.5625 C273.44107593 599.80330457 272.16357741 613.99853062 270.69140625 628.203125 C269.92512127 635.61933007 269.27046028 643.04330514 268.64624023 650.47265625 C268.15422246 656.32139964 267.60071134 662.16139787 267 668 C248.64172825 673.54612009 230.25790512 678.99129628 211.8331604 684.31263733 C207.31387631 685.61834134 202.7969909 686.93209861 198.28125 688.25 C185.05941955 692.10650663 171.82484648 695.91001544 158.5625 699.625 C143.4194887 703.86730041 128.30980474 708.21520099 113.2421875 712.71875 C95.92173909 717.89003332 78.54811025 722.86590313 61.16235352 727.81274414 C43.08047493 732.95989257 25.00834617 738.14749896 7.00846863 743.57579041 C2.22081007 745 2.22081007 745 0 745 C-0.33 714.31 -0.66 683.62 -1 652 C2.63 651.01 6.26 650.02 10 649 C12.46620157 648.21170511 14.9257088 647.40186384 17.375 646.5625 C23.05086408 644.62143136 28.76235936 642.83677492 34.49853516 641.08178711 C40.34937038 639.27415561 46.17349143 637.3842903 52 635.5 C59.99820646 632.91338356 68.00546307 630.36715011 76.04345703 627.90673828 C80.01507915 626.68868671 83.97723744 625.4419041 87.9375 624.1875 C88.73051514 623.93669678 89.52353027 623.68589355 90.34057617 623.42749023 C99.29767435 620.59274502 108.24975543 617.74220696 117.20166016 614.89111328 C121.80082951 613.42653745 126.40043436 611.96333071 131 610.5 C132.83333547 609.91667339 134.6666688 609.33334005 136.5 608.75 C147.5 605.25 147.5 605.25 150.25244141 604.37426758 C152.07767095 603.79348323 153.90286652 603.21259207 155.72802734 602.6315918 C160.43506929 601.13336146 165.14276636 599.63723996 169.8515625 598.14453125 C171.77607573 597.53396151 173.70055548 596.92328626 175.625 596.3125 C176.5437793 596.02109131 177.46255859 595.72968262 178.40917969 595.42944336 C184.28086918 593.56200618 190.12900047 591.64041747 195.953125 589.62890625 C198 589 198 589 200 589 C199.97899483 588.08272125 199.97899483 588.08272125 199.95756531 587.14691162 C199.85422838 578.80753054 200.49451624 570.56561223 201.20703125 562.265625 C201.33470692 560.74138188 201.46203354 559.2171095 201.58903503 557.69281006 C201.85610865 554.49873875 202.12618955 551.30494166 202.39868164 548.11132812 C202.73920292 544.11967863 203.07416501 540.12758997 203.40705681 536.13529778 C204.68199488 520.85848206 206.01520518 505.59130477 207.52734375 490.3359375 C209.01848151 475.24751273 210.22774445 460.14379867 211.39126587 445.02740479 C212.02200771 436.83532683 212.66589974 428.64427226 213.30859375 420.453125 C213.37556143 419.59868427 213.44252911 418.74424355 213.51152611 417.86391068 C215.08068773 397.85194675 216.70243968 377.84433112 218.34411621 357.8381958 C218.65582116 354.03942709 218.96624734 350.24055744 219.2755127 346.44158936 C219.64007336 341.96437648 220.00715184 337.48737728 220.37624931 333.01053619 C220.51185577 331.361288 220.64663755 329.71197176 220.78053474 328.06258392 C220.96435169 325.80079703 221.15132728 323.53929253 221.33911133 321.27783203 C221.44314774 320.0103714 221.54718414 318.74291077 221.65437317 317.43704224 C221.97422387 314.25632747 222.44748124 311.14728029 223 308 C223.12040196 306.625773 223.21692665 305.24908468 223.28125 303.87109375 C223.31863281 303.14599609 223.35601563 302.42089844 223.39453125 301.67382812 C223.46502757 300.17904512 223.53533911 298.68425338 223.60546875 297.18945312 C223.64285156 296.46564453 223.68023438 295.74183594 223.71875 294.99609375 C223.74904297 294.34825928 223.77933594 293.7004248 223.81054688 293.03295898 C224.03116251 290.66560534 224.5337121 288.3314395 225 286 C156.03 286 87.06 286 16 286 C17.65652827 282.68694346 21.33040682 282.01423829 24.625 280.68359375 C25.42151978 280.35557266 26.21803955 280.02755157 27.03869629 279.68959045 C29.68995994 278.59934599 32.34497791 277.51855579 35 276.4375 C36.86422529 275.6725887 38.72815344 274.90695285 40.59179688 274.140625 C44.47020305 272.5464922 48.34987986 270.95551087 52.23046875 269.36669922 C60.15669899 266.11880615 68.06725717 262.83330314 75.9777832 259.5473938 C80.23442373 257.77975079 84.49227796 256.01503597 88.75 254.25 C90.45833904 253.54168042 92.16667237 252.8333471 93.875 252.125 C97.29166667 250.70833333 100.70833333 249.29166667 104.125 247.875 C105.39339973 247.34907761 105.39339973 247.34907761 106.68742371 246.81253052 C108.3960103 246.10409292 110.10459795 245.39565786 111.81318665 244.68722534 C116.08015374 242.91800809 120.34710261 241.14874691 124.61401367 239.37939453 C132.34754948 236.17259383 140.08122412 232.96612995 147.81556702 229.76127625 C164.47443373 222.8583782 181.13164868 215.95164892 197.77648926 209.01498413 C200.0262418 208.07760726 202.2762769 207.14091151 204.52636719 206.2043457 C211.18069598 203.43348051 217.83054175 200.65304544 224.46875 197.84375 C225.594021 197.36929443 226.71929199 196.89483887 227.87866211 196.40600586 C229.93346512 195.53892657 231.98650312 194.66764697 234.03735352 193.79125977 C235.36657837 193.23136353 235.36657837 193.23136353 236.72265625 192.66015625 C237.48328369 192.33668213 238.24391113 192.01320801 239.02758789 191.67993164 C241 191 241 191 244 191 C244 159.32 244 127.64 244 95 C163.48 95 82.96 95 0 95 C0 63.65 0 32.3 0 0 Z " fill="#0089CA" transform="translate(515,139)"/>
<path d="M0 0 C39.27 0 78.54 0 119 0 C118.41739265 9.90432498 117.82528338 19.67629167 116.74365234 29.51855469 C114.46555045 50.45237115 112.5821025 71.4177398 110.75097656 92.39477539 C109.85479296 102.63774172 108.95155883 112.87959501 107.9140625 123.109375 C107.836185 123.90458557 107.7583075 124.69979614 107.67807007 125.519104 C107.11784232 130.88215768 107.11784232 130.88215768 106 132 C104.01641053 132.41693402 102.0215395 132.78043327 100.0234375 133.12109375 C98.79496094 133.33443359 97.56648437 133.54777344 96.30078125 133.76757812 C94.35751953 134.09918945 94.35751953 134.09918945 92.375 134.4375 C89.84054289 134.87018087 87.30666633 135.30627873 84.7734375 135.74609375 C83.07840088 136.03504517 83.07840088 136.03504517 81.34912109 136.32983398 C77.83072586 137.0338721 74.44407599 137.99858506 71 139 C68.33331222 139.47268134 65.67667894 139.90958842 63 140.3125 C55.87448324 141.43867851 48.85086234 142.85900858 41.8125 144.4375 C27.97281121 147.52971792 14.03752366 149.99463948 0 152 C0 101.84 0 51.68 0 0 Z " fill="#0089CA" transform="translate(515,526)"/>
</svg>
