<svg version="1.1" id="Layer_1" xmlns="http://www.w3.org/2000/svg" xmlns:xlink="http://www.w3.org/1999/xlink" x="0px" y="0px"
	 width="100%" viewBox="0 0 768 768" enable-background="new 0 0 768 768" xml:space="preserve">
<path fill="#000000" opacity="1.000000" stroke="none" 
	d="
M377.000000,769.000000 
	C251.683868,769.000000 126.367729,769.000000 1.025795,769.000000 
	C1.025795,513.052307 1.025795,257.104645 1.025795,1.078484 
	C256.912537,1.078484 512.825073,1.078484 768.868835,1.078484 
	C768.868835,256.877350 768.868835,512.754822 768.868835,769.000000 
	C643.640015,769.000000 518.279724,769.000000 392.191711,768.658447 
	C391.809540,767.964233 392.097412,767.401672 392.508698,767.288879 
	C417.323669,760.482178 442.160828,753.756042 466.969330,746.925964 
	C488.475159,741.005188 509.949738,734.970886 531.437927,728.986267 
	C556.836426,721.912720 582.234741,714.838806 607.906128,707.688965 
	C608.608582,700.946228 609.413208,694.279053 609.973328,687.591309 
	C610.757385,678.229797 611.255981,668.844177 612.063049,659.484924 
	C613.291626,645.237183 614.703735,631.005371 615.991272,616.762634 
	C616.732544,608.562622 617.319397,600.348572 618.087280,592.151245 
	C619.343628,578.739868 620.756226,565.342896 621.976868,551.928467 
	C622.782654,543.073425 623.261536,534.188599 624.076904,525.334595 
	C625.296875,512.086060 626.776306,498.861145 627.968567,485.610291 
	C628.810364,476.253784 629.255981,466.862000 630.062988,457.501862 
	C631.291565,443.252960 632.703613,429.020050 633.991089,414.776093 
	C634.732239,406.576385 635.318481,398.362488 636.086731,390.165527 
	C637.343018,376.761536 638.756653,363.372101 639.976807,349.964966 
	C640.782837,341.108032 641.259399,332.221008 642.074585,323.365082 
	C643.294678,310.111115 644.775085,296.880920 645.967957,283.624725 
	C646.809387,274.274048 647.203308,264.882629 648.070557,255.534805 
	C649.603027,239.015900 651.454895,222.526474 652.962219,206.005478 
	C654.143982,193.053131 654.960449,180.067871 656.034912,167.105164 
	C656.467346,161.888000 657.155212,156.692001 657.745667,151.315643 
	C475.923737,151.315643 294.061493,151.315643 113.036224,151.315643 
	C113.036224,155.565384 112.730415,159.524109 113.092537,163.420761 
	C114.262177,176.006729 115.808052,188.557953 116.955887,201.145630 
	C117.839119,210.831635 118.162331,220.568802 119.051933,230.254074 
	C120.569077,246.771561 122.363083,263.263397 123.986954,279.771332 
	C125.033241,290.407684 126.077179,301.045746 126.955322,311.696808 
	C128.376114,328.929565 129.659500,346.173645 131.001205,363.412964 
	C131.346451,367.848877 131.618698,372.291992 132.052551,376.719238 
	C133.334061,389.796844 134.769760,402.859863 135.969437,415.944702 
	C136.811050,425.124023 137.223007,434.342926 138.078598,443.520691 
	C139.618774,460.041931 141.450470,476.536194 142.959015,493.060120 
	C143.843140,502.744293 144.158478,512.480469 145.048172,522.164062 
	C146.565613,538.679932 148.380569,555.168274 149.982468,571.676636 
	C151.379684,586.075500 152.682312,600.483643 153.977600,614.892151 
	C155.347122,630.126221 156.721588,645.360229 157.976379,660.604004 
	C159.070908,673.900513 159.805374,687.230103 161.137405,700.501160 
	C161.489899,704.013062 160.945999,707.965576 167.032654,709.348083 
	C183.194809,713.019043 199.056992,718.014099 215.030853,722.509766 
	C240.402618,729.650208 265.741913,736.907654 291.143402,743.940613 
	C319.361267,751.753418 347.635681,759.362244 375.864716,767.135193 
	C376.375580,767.275879 376.627350,768.357422 377.000000,769.000000 
z"/>
<path fill="#E44D26" opacity="1.000000" stroke="none" 
	d="
M377.466125,769.000000 
	C376.627350,768.357422 376.375580,767.275879 375.864716,767.135193 
	C347.635681,759.362244 319.361267,751.753418 291.143402,743.940613 
	C265.741913,736.907654 240.402618,729.650208 215.030853,722.509766 
	C199.056992,718.014099 183.194809,713.019043 167.032654,709.348083 
	C160.945999,707.965576 161.489899,704.013062 161.137405,700.501160 
	C159.805374,687.230103 159.070908,673.900513 157.976379,660.604004 
	C156.721588,645.360229 155.347122,630.126221 153.977600,614.892151 
	C152.682312,600.483643 151.379684,586.075500 149.982468,571.676636 
	C148.380569,555.168274 146.565613,538.679932 145.048172,522.164062 
	C144.158478,512.480469 143.843140,502.744293 142.959015,493.060120 
	C141.450470,476.536194 139.618774,460.041931 138.078598,443.520691 
	C137.223007,434.342926 136.811050,425.124023 135.969437,415.944702 
	C134.769760,402.859863 133.334061,389.796844 132.052551,376.719238 
	C131.618698,372.291992 131.346451,367.848877 131.001205,363.412964 
	C129.659500,346.173645 128.376114,328.929565 126.955322,311.696808 
	C126.077179,301.045746 125.033241,290.407684 123.986954,279.771332 
	C122.363083,263.263397 120.569077,246.771561 119.051933,230.254074 
	C118.162331,220.568802 117.839119,210.831635 116.955887,201.145630 
	C115.808052,188.557953 114.262177,176.006729 113.092537,163.420761 
	C112.730415,159.524109 113.036224,155.565384 113.036224,151.315643 
	C294.061493,151.315643 475.923737,151.315643 657.745667,151.315643 
	C657.155212,156.692001 656.467346,161.888000 656.034912,167.105164 
	C654.960449,180.067871 654.143982,193.053131 652.962219,206.005478 
	C651.454895,222.526474 649.603027,239.015900 648.070557,255.534805 
	C647.203308,264.882629 646.809387,274.274048 645.967957,283.624725 
	C644.775085,296.880920 643.294678,310.111115 642.074585,323.365082 
	C641.259399,332.221008 640.782837,341.108032 639.976807,349.964966 
	C638.756653,363.372101 637.343018,376.761536 636.086731,390.165527 
	C635.318481,398.362488 634.732239,406.576385 633.991089,414.776093 
	C632.703613,429.020050 631.291565,443.252960 630.062988,457.501862 
	C629.255981,466.862000 628.810364,476.253784 627.968567,485.610291 
	C626.776306,498.861145 625.296875,512.086060 624.076904,525.334595 
	C623.261536,534.188599 622.782654,543.073425 621.976868,551.928467 
	C620.756226,565.342896 619.343628,578.739868 618.087280,592.151245 
	C617.319397,600.348572 616.732544,608.562622 615.991272,616.762634 
	C614.703735,631.005371 613.291626,645.237183 612.063049,659.484924 
	C611.255981,668.844177 610.757385,678.229797 609.973328,687.591309 
	C609.413208,694.279053 608.608582,700.946228 607.906128,707.688965 
	C582.234741,714.838806 556.836426,721.912720 531.437927,728.986267 
	C509.949738,734.970886 488.475159,741.005188 466.969330,746.925964 
	C442.160828,753.756042 417.323669,760.482178 392.508698,767.288879 
	C392.097412,767.401672 391.809540,767.964233 391.732025,768.658447 
	C387.310760,769.000000 382.621490,769.000000 377.466125,769.000000 
M384.243347,579.967285 
	C360.312439,573.607971 336.390442,567.214600 312.437927,560.937683 
	C309.796936,560.245605 308.572540,559.064697 308.418396,556.260010 
	C308.098938,550.447021 307.490021,544.649231 306.967651,538.848206 
	C305.973572,527.808350 304.956757,516.770630 303.957092,505.816071 
	C280.953400,505.816071 258.571014,505.816071 235.685028,505.816071 
	C236.475861,514.829773 237.215439,523.425537 237.986664,532.018433 
	C240.307343,557.875122 242.600128,583.734558 245.088913,609.575134 
	C245.211685,610.849854 246.883713,612.673584 248.173615,613.036682 
	C293.766998,625.873535 339.401031,638.566040 385.009399,652.181030 
	C385.006866,673.012512 384.988068,693.843994 385.011475,714.675476 
	C385.018768,721.180542 385.709808,721.606995 392.048706,719.836975 
	C419.486481,712.175598 446.935272,704.553650 474.376404,696.904236 
	C503.101288,688.897034 531.840149,680.938049 560.502380,672.712341 
	C562.355896,672.180420 564.435303,669.766418 564.956482,667.835693 
	C565.938721,664.197266 565.866943,660.273193 566.223022,656.466919 
	C568.142883,635.942322 570.119873,615.422852 571.958679,594.890991 
	C573.456543,578.165894 574.703552,561.418274 576.212830,544.694275 
	C578.394226,520.520935 580.780823,496.366119 582.950623,472.191803 
	C584.778809,451.824249 586.337341,431.432495 588.170288,411.065399 
	C590.345886,386.891541 592.761719,362.739319 594.934021,338.565186 
	C596.779114,318.032043 598.337097,297.473145 600.184021,276.940155 
	C602.343567,252.932220 604.709595,228.942886 606.916199,204.939072 
	C607.477844,198.829178 606.627441,197.986389 600.442078,197.985321 
	C530.782471,197.973312 461.122864,197.972931 391.463257,197.986465 
	C385.303101,197.987671 385.018921,198.289719 385.009186,204.546417 
	C384.977783,224.710968 384.979950,244.875549 384.064117,265.283051 
	C381.900635,265.330536 379.737122,265.419189 377.573639,265.419495 
	C325.264435,265.427246 272.955231,265.425537 220.646011,265.425568 
	C218.551773,265.425568 216.457520,265.425568 213.988129,265.425568 
	C220.226807,334.414246 226.396973,402.645294 232.595596,471.191040 
	C235.227020,471.191040 237.207352,471.191040 239.187683,471.191040 
	C285.666260,471.191040 332.144806,471.184296 378.623383,471.212646 
	C380.764465,471.213959 382.905365,471.530121 385.028015,472.546539 
	C385.026184,508.314056 385.024323,544.081543 384.243347,579.967285 
z"/>
<path fill="#F16529" opacity="1.000000" stroke="none" 
	d="
M384.969177,265.040131 
	C384.979950,244.875549 384.977783,224.710968 385.009186,204.546417 
	C385.018921,198.289719 385.303101,197.987671 391.463257,197.986465 
	C461.122864,197.972931 530.782471,197.973312 600.442078,197.985321 
	C606.627441,197.986389 607.477844,198.829178 606.916199,204.939072 
	C604.709595,228.942886 602.343567,252.932220 600.184021,276.940155 
	C598.337097,297.473145 596.779114,318.032043 594.934021,338.565186 
	C592.761719,362.739319 590.345886,386.891541 588.170288,411.065399 
	C586.337341,431.432495 584.778809,451.824249 582.950623,472.191803 
	C580.780823,496.366119 578.394226,520.520935 576.212830,544.694275 
	C574.703552,561.418274 573.456543,578.165894 571.958679,594.890991 
	C570.119873,615.422852 568.142883,635.942322 566.223022,656.466919 
	C565.866943,660.273193 565.938721,664.197266 564.956482,667.835693 
	C564.435303,669.766418 562.355896,672.180420 560.502380,672.712341 
	C531.840149,680.938049 503.101288,688.897034 474.376404,696.904236 
	C446.935272,704.553650 419.486481,712.175598 392.048706,719.836975 
	C385.709808,721.606995 385.018768,721.180542 385.011475,714.675476 
	C384.988068,693.843994 385.006866,673.012512 385.013184,651.622437 
	C385.016998,651.063782 384.966003,650.854370 385.351685,650.855835 
	C430.124207,638.544434 474.493805,626.168274 518.926941,614.024536 
	C522.997498,612.912109 524.497620,611.066711 524.826111,607.025635 
	C526.391541,587.772400 528.188171,568.537781 529.913757,549.297607 
	C533.513611,509.159851 537.129395,469.023468 540.717224,428.884644 
	C541.466614,420.500885 542.123047,412.108887 542.861816,403.246765 
	C540.329468,403.246765 538.358154,403.246765 536.386902,403.246765 
	C494.899963,403.246765 453.413025,403.235382 411.926086,403.255829 
	C402.933441,403.260254 393.940826,403.379364 384.971741,403.319580 
	C384.995300,403.193512 385.005127,402.937195 385.005737,402.472504 
	C384.993591,379.324707 384.980896,356.641602 384.985443,333.787445 
	C385.002716,333.616394 384.937164,333.278870 385.398438,333.384979 
	C440.134125,333.491089 494.408539,333.491089 549.092468,333.491089 
	C551.193481,310.732361 553.253784,288.414886 555.374817,265.439728 
	C552.924927,265.439728 551.146606,265.439758 549.368347,265.439728 
	C496.216705,265.439148 443.065094,265.435974 389.913452,265.449860 
	C388.255798,265.450287 386.598175,265.626678 384.972931,265.551849 
	C385.005310,265.382690 384.969177,265.040131 384.969177,265.040131 
z"/>
<path fill="#EBE9E8" opacity="1.000000" stroke="none" 
	d="
M385.046356,471.699615 
	C382.905365,471.530121 380.764465,471.213959 378.623383,471.212646 
	C332.144806,471.184296 285.666260,471.191040 239.187683,471.191040 
	C237.207352,471.191040 235.227020,471.191040 232.595596,471.191040 
	C226.396973,402.645294 220.226807,334.414246 213.988129,265.425568 
	C216.457520,265.425568 218.551773,265.425568 220.646011,265.425568 
	C272.955231,265.425537 325.264435,265.427246 377.573639,265.419495 
	C379.737122,265.419189 381.900635,265.330536 384.516663,265.161591 
	C384.969177,265.040131 385.005310,265.382690 384.978149,265.973846 
	C384.946350,288.802948 384.941772,311.040924 384.937164,333.278870 
	C384.937164,333.278870 385.002716,333.616394 384.532837,333.666199 
	C352.497955,333.716003 320.932953,333.716003 288.728149,333.716003 
	C290.856262,357.178619 292.933655,380.082153 295.033875,403.237061 
	C307.331970,403.237061 318.965942,403.272858 330.599670,403.228790 
	C348.734924,403.160065 366.869995,403.037140 385.005127,402.937195 
	C385.005127,402.937195 384.995300,403.193512 384.982880,403.759583 
	C384.987244,426.564758 385.003998,448.803864 385.009644,471.207825 
	C384.998535,471.372650 385.046356,471.699615 385.046356,471.699615 
z"/>
<path fill="#EBEAEA" opacity="1.000000" stroke="none" 
	d="
M385.023193,651.171326 
	C339.401031,638.566040 293.766998,625.873535 248.173615,613.036682 
	C246.883713,612.673584 245.211685,610.849854 245.088913,609.575134 
	C242.600128,583.734558 240.307343,557.875122 237.986664,532.018433 
	C237.215439,523.425537 236.475861,514.829773 235.685028,505.816071 
	C258.571014,505.816071 280.953400,505.816071 303.957092,505.816071 
	C304.956757,516.770630 305.973572,527.808350 306.967651,538.848206 
	C307.490021,544.649231 308.098938,550.447021 308.418396,556.260010 
	C308.572540,559.064697 309.796936,560.245605 312.437927,560.937683 
	C336.390442,567.214600 360.312439,573.607971 384.627808,580.012207 
	C385.012299,580.057129 384.955902,580.257629 384.962952,580.710022 
	C384.968658,604.393066 384.967316,627.623718 384.966003,650.854370 
	C384.966003,650.854370 385.016998,651.063782 385.023193,651.171326 
z"/>
<path fill="#F1662B" opacity="1.000000" stroke="none" 
	d="
M385.017395,579.953125 
	C385.024323,544.081543 385.026184,508.314056 385.037170,472.123077 
	C385.046356,471.699615 384.998535,471.372650 385.465515,471.317749 
	C413.332520,471.262878 440.732513,471.262878 467.860565,471.262878 
	C468.252258,472.258453 468.498901,472.573425 468.473267,472.864441 
	C465.993744,501.026398 463.540222,529.190979 460.846313,557.332581 
	C460.721558,558.635742 458.619110,560.412292 457.123444,560.822449 
	C433.097778,567.411011 409.021027,573.813110 384.955902,580.257629 
	C384.955902,580.257629 385.012299,580.057129 385.017395,579.953125 
z"/>
<path fill="#FFFFFE" opacity="1.000000" stroke="none" 
	d="
M384.962952,580.710022 
	C409.021027,573.813110 433.097778,567.411011 457.123444,560.822449 
	C458.619110,560.412292 460.721558,558.635742 460.846313,557.332581 
	C463.540222,529.190979 465.993744,501.026398 468.473267,472.864441 
	C468.498901,472.573425 468.252258,472.258453 467.860565,471.262878 
	C440.732513,471.262878 413.332520,471.262878 385.476624,471.152924 
	C385.003998,448.803864 384.987244,426.564758 384.959351,403.885681 
	C393.940826,403.379364 402.933441,403.260254 411.926086,403.255829 
	C453.413025,403.235382 494.899963,403.246765 536.386902,403.246765 
	C538.358154,403.246765 540.329468,403.246765 542.861816,403.246765 
	C542.123047,412.108887 541.466614,420.500885 540.717224,428.884644 
	C537.129395,469.023468 533.513611,509.159851 529.913757,549.297607 
	C528.188171,568.537781 526.391541,587.772400 524.826111,607.025635 
	C524.497620,611.066711 522.997498,612.912109 518.926941,614.024536 
	C474.493805,626.168274 430.124207,638.544434 385.351685,650.855835 
	C384.967316,627.623718 384.968658,604.393066 384.962952,580.710022 
z"/>
<path fill="#FFFFFF" opacity="1.000000" stroke="none" 
	d="
M385.398438,333.384979 
	C384.941772,311.040924 384.946350,288.802948 384.945740,266.143005 
	C386.598175,265.626678 388.255798,265.450287 389.913452,265.449860 
	C443.065094,265.435974 496.216705,265.439148 549.368347,265.439728 
	C551.146606,265.439758 552.924927,265.439728 555.374817,265.439728 
	C553.253784,288.414886 551.193481,310.732361 549.092468,333.491089 
	C494.408539,333.491089 440.134125,333.491089 385.398438,333.384979 
z"/>
<path fill="#E44D26" opacity="1.000000" stroke="none" 
	d="
M385.005737,402.472504 
	C366.869995,403.037140 348.734924,403.160065 330.599670,403.228790 
	C318.965942,403.272858 307.331970,403.237061 295.033875,403.237061 
	C292.933655,380.082153 290.856262,357.178619 288.728149,333.716003 
	C320.932953,333.716003 352.497955,333.716003 384.515564,333.837250 
	C384.980896,356.641602 384.993591,379.324707 385.005737,402.472504 
z"/>
</svg>