<?xml version="1.0" standalone="no"?>
<!DOCTYPE svg PUBLIC "-//W3C//DTD SVG 20010904//EN"
 "http://www.w3.org/TR/2001/REC-SVG-20010904/DTD/svg10.dtd">
<svg version="1.0" xmlns="http://www.w3.org/2000/svg"
 width="227.000000pt" height="222.000000pt" viewBox="0 0 227.000000 222.000000"
 preserveAspectRatio="xMidYMid meet">

<g transform="translate(0.000000,222.000000) scale(0.100000,-0.100000)"
fill="#000000" stroke="none">
<path d="M985 2209 c-236 -30 -474 -148 -650 -324 -555 -555 -393 -1484 317
-1826 48 -22 105 -43 127 -46 66 -9 71 1 71 137 l0 118 -83 -5 c-160 -10 -242
35 -310 170 -34 68 -60 99 -136 160 -34 27 -21 42 36 42 67 -1 119 -36 173
-114 55 -81 113 -116 195 -116 33 1 76 6 96 13 31 11 37 18 43 51 3 21 17 54
30 74 l25 37 -22 4 c-295 57 -423 166 -471 398 -35 171 -5 346 76 435 18 19
19 27 9 95 -11 74 -5 152 18 211 9 22 17 27 45 27 50 0 128 -28 208 -75 l71
-42 61 16 c42 10 110 15 221 15 111 0 179 -5 221 -15 l61 -16 71 42 c84 49
167 78 213 73 30 -3 35 -8 47 -48 16 -54 18 -184 4 -221 -9 -23 -7 -32 14 -60
73 -97 100 -201 91 -337 -15 -204 -100 -353 -245 -426 -56 -28 -183 -66 -223
-66 -38 0 -40 -8 -14 -49 37 -56 44 -110 45 -317 0 -217 1 -221 71 -211 50 7
190 73 279 132 338 225 534 643 492 1048 -67 644 -636 1096 -1277 1016z"/>
</g>
</svg>
